<?xml version="1.0" standalone="no"?><!DOCTYPE svg PUBLIC "-//W3C//DTD SVG 1.1//EN" "http://www.w3.org/Graphics/SVG/1.1/DTD/svg11.dtd"><svg t="1643010569170" class="icon" viewBox="0 0 1024 1024" version="1.1" xmlns="http://www.w3.org/2000/svg" p-id="2219" xmlns:xlink="http://www.w3.org/1999/xlink" width="128" height="128"><defs><style type="text/css"></style></defs><path d="M465.188571 538.514286H121.6c-21.028571 0-38.217143 17.005714-38.217143 38.217143v342.125714c0 21.028571 17.005714 38.217143 38.217143 38.217143h343.588571c21.028571 0 38.217143-17.005714 38.217143-38.217143V576.731429c0-21.211429-17.188571-38.217143-38.217143-38.217143zM923.062857 538.514286H579.474286c-21.028571 0-38.217143 17.005714-38.217143 38.217143v342.125714c0 21.028571 17.005714 38.217143 38.217143 38.217143h343.588571c21.028571 0 38.217143-17.005714 38.217143-38.217143V576.731429c0-21.211429-17.188571-38.217143-38.217143-38.217143zM750.445714 497.554286h1.462857c115.565714 0 209.188571-93.622857 209.188572-209.188572 0-115.565714-93.622857-209.188571-209.188572-209.188571h-1.462857c-115.565714 0-209.188571 93.622857-209.188571 209.188571 0 115.565714 93.622857 209.188571 209.188571 209.188572zM465.188571 79.177143H121.6c-21.028571 0-38.217143 17.005714-38.217143 38.217143v342.125714c0 21.028571 17.005714 38.217143 38.217143 38.217143h343.588571c21.028571 0 38.217143-17.005714 38.217143-38.217143V117.394286c0-21.028571-17.188571-38.217143-38.217143-38.217143z" fill="#4C4C4C" p-id="2220"></path></svg>