<?xml version="1.0" standalone="no"?><!DOCTYPE svg PUBLIC "-//W3C//DTD SVG 1.1//EN" "http://www.w3.org/Graphics/SVG/1.1/DTD/svg11.dtd"><svg t="1643010557791" class="icon" viewBox="0 0 1024 1024" version="1.1" xmlns="http://www.w3.org/2000/svg" p-id="2067" xmlns:xlink="http://www.w3.org/1999/xlink" width="128" height="128"><defs><style type="text/css"></style></defs><path d="M987.428571 146.285714H768c-20.114286 0-36.571429 16.457143-36.571429 36.571429v694.857143c0 20.114286 16.457143 36.571429 36.571429 36.571428h219.428571c20.114286 0 36.571429-16.457143 36.571429-36.571428V182.857143c0-20.114286-16.457143-36.571429-36.571429-36.571429z m-73.142857 603.428572h-73.142857V310.857143h73.142857v438.857143zM585.142857 146.285714H36.571429c-20.114286 0-36.571429 16.457143-36.571429 36.571429v694.857143c0 20.114286 16.457143 36.571429 36.571429 36.571428h548.571428c20.114286 0 36.571429-16.457143 36.571429-36.571428V182.857143c0-20.114286-16.457143-36.571429-36.571429-36.571429zM201.142857 749.714286H128V310.857143h73.142857v438.857143z m146.285714 0h-73.142857V310.857143h73.142857v438.857143z m146.285715 0h-73.142857V310.857143h73.142857v438.857143z" fill="#4C4C4C" p-id="2068"></path></svg>